<svg width="26" height="24" viewBox="0 0 26 24" fill="none" xmlns="http://www.w3.org/2000/svg">
<path fill-rule="evenodd" clip-rule="evenodd" d="M23.218 23.729H2.78087C1.222 23.729 0 22.2763 0 20.4224V5.43061C0 3.5767 0.70087 2.25748 2.26087 2.25748H9.04348V1.12704C9.04348 0.51887 9.41313 0 10.0281 0C10.6442 0 11.1427 0.494 11.1427 1.10217L11.3043 2.25748H14.6957L14.8573 1.10217C14.8573 0.494 15.3558 0 15.9708 0C16.5869 0 17.0854 0.494 17.0854 1.10217L16.9565 2.25748H23.7391C25.2991 2.25748 26 3.5767 26 5.43061V20.4224C26 22.2763 24.778 23.729 23.218 23.729V23.729ZM23.218 4.32843H17.0854V4.77609C17.0854 5.38426 16.441 5.64878 15.8261 5.64878C15.21 5.64878 14.8573 5.38426 14.8573 4.77609V4.32843H11.1427V4.77609C11.1427 5.38426 10.7889 5.64878 10.1739 5.64878C9.55783 5.64878 8.91461 5.38426 8.91461 4.77609V4.32843L2.26087 4.51835C2.06643 4.51835 2.22809 4.7467 2.22809 5.43061L2.26087 7.90965H23.7391L23.7719 5.43061C23.7719 4.7467 23.4136 4.32843 23.218 4.32843V4.32843ZM23.7719 20.4224L23.7391 10.1705H2.26087L2.22809 20.4224C2.22809 21.1063 2.06643 21.4749 2.26087 21.4749H23.7391C23.9336 21.4749 23.7719 21.1063 23.7719 20.4224V20.4224ZM9.04348 18.0836H5.65217C5.65217 17.8518 5.65217 14.6923 5.65217 14.6923C5.65217 14.2864 5.53235 13.5946 5.9427 13.5946H9.40974C9.82009 13.5946 10.1524 13.9224 10.1524 14.3294V17.7569C10.1524 18.1627 9.45383 18.0836 9.04348 18.0836V18.0836ZM5.65217 18.0836C5.24183 18.0836 5.65217 17.7557 5.65217 18.0836V18.0836Z" fill="white"/>
</svg>
