<svg width="18" height="22" viewBox="0 0 18 22" fill="none" xmlns="http://www.w3.org/2000/svg">
<path fill-rule="evenodd" clip-rule="evenodd" d="M1.40283 0.949853C1.14518 0.949853 0.935223 1.16309 0.935223 1.42478V20.4218C0.935223 20.6835 1.14518 20.8968 1.40283 20.8968H16.3664C16.6241 20.8968 16.834 20.6835 16.834 20.4218V6.37066L11.4967 0.949853H1.40283ZM16.3664 21.8466H1.40283C0.629405 21.8466 0 21.2074 0 20.4218V1.42478C0 0.639251 0.629405 0 1.40283 0H11.6903C11.8142 0 11.9334 0.0498673 12.0209 0.139153L17.6322 5.83827C17.7201 5.92708 17.7692 6.04819 17.7692 6.17404V20.4218C17.7692 21.2074 17.1398 21.8466 16.3664 21.8466V21.8466Z" fill="#007AFF"/>
<path fill-rule="evenodd" clip-rule="evenodd" d="M17.3016 6.64895H11.6903C11.4321 6.64895 11.2227 6.43618 11.2227 6.17402V0.949829H12.1579V5.69909H17.3016V6.64895Z" fill="#007AFF"/>
<path fill-rule="evenodd" clip-rule="evenodd" d="M8.88461 8.07375H3.27328C3.01515 8.07375 2.80566 7.86099 2.80566 7.59883C2.80566 7.33667 3.01515 7.1239 3.27328 7.1239H8.88461C9.14273 7.1239 9.35222 7.33667 9.35222 7.59883C9.35222 7.86099 9.14273 8.07375 8.88461 8.07375" fill="#007AFF"/>
<path fill-rule="evenodd" clip-rule="evenodd" d="M14.4959 10.9234H3.27328C3.01515 10.9234 2.80566 10.7106 2.80566 10.4484C2.80566 10.1863 3.01515 9.97351 3.27328 9.97351H14.4959C14.7541 9.97351 14.9636 10.1863 14.9636 10.4484C14.9636 10.7106 14.7541 10.9234 14.4959 10.9234" fill="#007AFF"/>
<path fill-rule="evenodd" clip-rule="evenodd" d="M14.4959 13.7729H3.27328C3.01515 13.7729 2.80566 13.5601 2.80566 13.2979C2.80566 13.0358 3.01515 12.823 3.27328 12.823H14.4959C14.7541 12.823 14.9636 13.0358 14.9636 13.2979C14.9636 13.5601 14.7541 13.7729 14.4959 13.7729" fill="#007AFF"/>
<path fill-rule="evenodd" clip-rule="evenodd" d="M14.4959 16.6225H3.27328C3.01515 16.6225 2.80566 16.4097 2.80566 16.1475C2.80566 15.8854 3.01515 15.6726 3.27328 15.6726H14.4959C14.7541 15.6726 14.9636 15.8854 14.9636 16.1475C14.9636 16.4097 14.7541 16.6225 14.4959 16.6225" fill="#007AFF"/>
</svg>
