<svg width="13" height="11" viewBox="0 0 13 11" fill="none" xmlns="http://www.w3.org/2000/svg">
<path fill-rule="evenodd" clip-rule="evenodd" d="M6.76249 8.22676C6.75882 8.23061 6.75296 8.22896 6.74911 8.23244C6.68641 8.29129 6.60372 8.32759 6.51187 8.33053C6.51096 8.33053 6.51022 8.33053 6.50949 8.33089C6.41104 8.33383 6.31241 8.30211 6.23724 8.22676L4.03928 5.66268C3.89481 5.5184 3.89481 5.28373 4.03928 5.13908C4.18393 4.9948 4.41804 4.9948 4.56251 5.13908L6.13311 6.97185V1.36648C6.13311 1.16427 6.29738 1 6.49977 1C6.70236 1 6.86662 1.16427 6.86662 1.36648V6.97185L8.43723 5.13908C8.58169 4.9948 8.81599 4.9948 8.96045 5.13908C9.10492 5.28373 9.10492 5.5184 8.96045 5.66268L6.76249 8.22676ZM11.6333 10.5329H1.36666C1.16408 10.5329 1 10.3692 1 10.1662V7.2331C1 7.03089 1.16408 6.86644 1.36666 6.86644C1.56906 6.86644 1.73333 7.03089 1.73333 7.2331V9.79957H11.2666V7.2331C11.2666 7.03089 11.4309 6.86644 11.6333 6.86644C11.8356 6.86644 11.9999 7.03089 11.9999 7.2331V10.1662C11.9999 10.3692 11.8356 10.5329 11.6333 10.5329V10.5329Z" fill="#4DA1FF" fill-opacity="0.74"/>
<path d="M6.76249 8.22676L6.835 8.29582L6.83841 8.29184L6.76249 8.22676ZM6.74911 8.23244L6.682 8.15828L6.68067 8.15953L6.74911 8.23244ZM6.51187 8.33053V8.43058L6.51507 8.43048L6.51187 8.33053ZM6.50949 8.33089L6.51247 8.43085L6.5345 8.43019L6.55421 8.42034L6.50949 8.33089ZM6.23724 8.22676L6.1611 8.29203L6.16645 8.29739L6.23724 8.22676ZM4.03928 5.66268L4.11543 5.5974L4.10994 5.59193L4.03928 5.66268ZM4.03928 5.13908L3.96866 5.06828L3.96852 5.06842L4.03928 5.13908ZM4.56251 5.13908L4.63867 5.07382L4.63317 5.06833L4.56251 5.13908ZM6.13311 6.97185L6.05718 7.03692L6.23311 7.24222V6.97185H6.13311ZM6.86662 6.97185H6.76662V7.24222L6.94255 7.03692L6.86662 6.97185ZM8.43723 5.13908L8.36635 5.06812L8.36129 5.07401L8.43723 5.13908ZM8.96045 5.13908L9.03121 5.06842L9.03112 5.06833L8.96045 5.13908ZM8.96045 5.66268L8.88958 5.59171L8.88453 5.5976L8.96045 5.66268ZM1.73333 9.79957H1.63333V9.89957H1.73333V9.79957ZM11.2666 9.79957V9.89957H11.3666V9.79957H11.2666ZM6.69008 8.1578C6.70145 8.14586 6.71379 8.13925 6.72291 8.13568C6.72717 8.134 6.73066 8.13302 6.73264 8.13251C6.73449 8.13203 6.73587 8.13176 6.73536 8.13187C6.73514 8.13191 6.73529 8.13188 6.73493 8.13195C6.73473 8.132 6.73442 8.13206 6.73407 8.13214C6.73338 8.13228 6.73231 8.13252 6.73104 8.13282C6.72855 8.13341 6.72453 8.13443 6.71976 8.13607C6.70987 8.13948 6.69574 8.14588 6.68201 8.15829L6.8162 8.3066C6.8044 8.31727 6.79244 8.32257 6.78485 8.32519C6.78123 8.32643 6.77839 8.32714 6.77709 8.32744C6.77609 8.32768 6.77503 8.3279 6.77637 8.32761C6.77706 8.32747 6.77964 8.32694 6.78267 8.32615C6.78584 8.32534 6.79049 8.324 6.79588 8.32189C6.80725 8.31743 6.8217 8.30959 6.8349 8.29573L6.69008 8.1578ZM6.68067 8.15953C6.6352 8.20221 6.57553 8.22844 6.50868 8.23058L6.51507 8.43048C6.63191 8.42674 6.73761 8.38038 6.81754 8.30536L6.68067 8.15953ZM6.51187 8.23053C6.51182 8.23053 6.51138 8.23053 6.51088 8.23053C6.51035 8.23053 6.50951 8.23054 6.50848 8.23057C6.50649 8.23062 6.50309 8.23077 6.49893 8.23126C6.48991 8.23232 6.4778 8.23494 6.46477 8.24145L6.55421 8.42034C6.54192 8.42648 6.53054 8.42892 6.5223 8.42989C6.51578 8.43066 6.51005 8.43053 6.51187 8.43053V8.23053ZM6.50651 8.23094C6.43156 8.23317 6.361 8.20923 6.30804 8.15614L6.16645 8.29739C6.26382 8.39499 6.39052 8.43448 6.51247 8.43085L6.50651 8.23094ZM6.31317 8.16168L4.1152 5.5976L3.96335 5.72776L6.16132 8.29184L6.31317 8.16168ZM4.10994 5.59193C4.00464 5.48676 4.00451 5.31541 4.11003 5.20975L3.96852 5.06842C3.78511 5.25206 3.78498 5.55004 3.96861 5.73344L4.10994 5.59193ZM4.1099 5.20989C4.21554 5.10451 4.38644 5.10458 4.49184 5.20984L4.63317 5.06833C4.44964 4.88503 4.15231 4.88509 3.96866 5.06828L4.1099 5.20989ZM4.48657 5.20416L6.05718 7.03692L6.20904 6.90678L4.63844 5.07401L4.48657 5.20416ZM6.23311 6.97185V1.36648H6.03311V6.97185H6.23311ZM6.23311 1.36648C6.23311 1.21953 6.35257 1.1 6.49977 1.1V0.9C6.24218 0.9 6.03311 1.109 6.03311 1.36648H6.23311ZM6.49977 1.1C6.64719 1.1 6.76662 1.21956 6.76662 1.36648H6.96662C6.96662 1.10897 6.75752 0.9 6.49977 0.9V1.1ZM6.76662 1.36648V6.97185H6.96662V1.36648H6.76662ZM6.94255 7.03692L8.51316 5.20416L8.36129 5.07401L6.79069 6.90678L6.94255 7.03692ZM8.50789 5.20984C8.61332 5.10455 8.78437 5.10455 8.88979 5.20984L9.03112 5.06833C8.84761 4.88505 8.55007 4.88505 8.36656 5.06833L8.50789 5.20984ZM8.8897 5.20975C8.99522 5.31541 8.99509 5.48676 8.88979 5.59193L9.03112 5.73344C9.21475 5.55004 9.21462 5.25206 9.03121 5.06842L8.8897 5.20975ZM8.88453 5.5976L6.68657 8.16168L6.83841 8.29184L9.03638 5.72776L8.88453 5.5976ZM11.6333 10.4329H1.36666V10.6329H11.6333V10.4329ZM1.36666 10.4329C1.21925 10.4329 1.1 10.3139 1.1 10.1662H0.9C0.9 10.4245 1.10892 10.6329 1.36666 10.6329V10.4329ZM1.1 10.1662V7.2331H0.9V10.1662H1.1ZM1.1 7.2331C1.1 7.08605 1.21938 6.96644 1.36666 6.96644V6.76644C1.10879 6.76644 0.9 6.97572 0.9 7.2331H1.1ZM1.36666 6.96644C1.5138 6.96644 1.63333 7.08608 1.63333 7.2331H1.83333C1.83333 6.97569 1.62432 6.76644 1.36666 6.76644V6.96644ZM1.63333 7.2331V9.79957H1.83333V7.2331H1.63333ZM1.73333 9.89957H11.2666V9.69957H1.73333V9.89957ZM11.3666 9.79957V7.2331H11.1666V9.79957H11.3666ZM11.3666 7.2331C11.3666 7.08608 11.4861 6.96644 11.6333 6.96644V6.76644C11.3756 6.76644 11.1666 6.97569 11.1666 7.2331H11.3666ZM11.6333 6.96644C11.7804 6.96644 11.8999 7.08608 11.8999 7.2331H12.0999C12.0999 6.97569 11.8909 6.76644 11.6333 6.76644V6.96644ZM11.8999 7.2331V10.1662H12.0999V7.2331H11.8999ZM11.8999 10.1662C11.8999 10.3139 11.7805 10.4329 11.6333 10.4329V10.6329C11.8908 10.6329 12.0999 10.4245 12.0999 10.1662H11.8999Z" fill="#4DA1FF"/>
</svg>
