<svg width="30" height="42" viewBox="0 0 30 42" fill="none" xmlns="http://www.w3.org/2000/svg">
<g clip-path="url(#clip0)">
<path d="M20.92 20.7132L25.7054 15.9332C19.9794 10.2138 10.6962 10.2138 4.97011 15.9332L9.75519 20.7132C12.8384 17.6337 17.8368 17.6337 20.92 20.7132V20.7132Z" fill="#4DA1FF" fill-opacity="0.3"/>
<path d="M25.7055 15.9354L23.7476 17.8632L20.9201 20.7132C23.1783 22.9688 23.854 26.3612 22.632 29.3085C21.41 32.2557 18.531 34.1774 15.3375 34.1774C12.1441 34.1774 9.26507 32.2557 8.04306 29.3085C6.82106 26.3612 7.4967 22.9688 9.75493 20.7132L20.9201 9.55995C23.5626 6.91995 23.5626 2.64 20.9201 0L4.96985 15.9332C1.20112 19.6202 -0.294621 25.0451 1.05292 30.1397C2.40046 35.2343 6.38357 39.2131 11.4836 40.5592C16.5836 41.9053 22.0143 40.4112 25.7052 36.6465C31.431 30.9286 31.431 21.6554 25.7055 15.9354Z" fill="#4DA1FF" fill-opacity="0.29846"/>
<path d="M23.0761 24.7316C23.8212 28.4226 21.8505 32.125 18.3706 33.572C14.8906 35.0189 10.8721 33.8068 8.77538 30.6778C6.67866 27.5487 7.08856 23.3755 9.75412 20.7132L20.92 9.55995C23.5625 6.91995 23.5625 2.64 20.92 0L4.96976 15.9332C-0.755705 21.6532 -0.755705 30.9265 4.96976 36.6465C5.05931 36.7359 5.14958 36.8239 5.24056 36.9103C13.0548 44.3302 25.7845 37.0013 23.4639 26.4839L23.0761 24.7316Z" fill="#4DA1FF"/>
</g>
<defs>
<clipPath id="clip0">
<rect width="42" height="30" fill="white" transform="translate(30) rotate(90)"/>
</clipPath>
</defs>
</svg>
