<svg width="21" height="21" viewBox="0 0 21 21" fill="none" xmlns="http://www.w3.org/2000/svg">
<path fill-rule="evenodd" clip-rule="evenodd" d="M5.72234 8.16127C5.74398 8.17494 5.76826 8.18949 5.79342 8.20536C5.99826 8.33234 6.14616 8.42405 6.20266 8.61762C6.4234 9.38393 7.91778 12.2318 9.93884 12.2318C11.9581 12.2318 13.4538 9.38349 13.6746 8.61894C13.7298 8.42538 13.8785 8.33278 14.0838 8.20492C14.109 8.18949 14.1333 8.17494 14.1545 8.16127C14.6957 7.17671 14.6105 6.73711 14.5469 6.59161C14.4697 6.41481 14.3072 6.3716 14.2891 6.36719C14.082 6.3178 13.9271 6.12424 13.9386 5.91172C13.939 5.9007 13.9955 4.77328 13.7214 3.73933C13.6949 3.64322 13.0013 1.29138 9.93884 1.29138C6.85251 1.29138 6.16205 3.71685 6.15543 3.74154C5.88039 4.77857 5.93822 5.90026 5.93866 5.91128C5.95147 6.13306 5.79651 6.32927 5.57798 6.36939C5.56959 6.3716 5.40713 6.41481 5.32988 6.59161C5.26675 6.73711 5.1811 7.17671 5.72234 8.16127M9.93884 13.1136C7.50324 13.1136 5.80313 10.1904 5.39698 8.99724C5.37491 8.98313 5.35062 8.96858 5.32723 8.95403C5.1683 8.85571 5.06323 8.79045 4.99436 8.66744C4.40941 7.63438 4.25489 6.80634 4.53523 6.20802C4.66899 5.92142 4.87207 5.74814 5.05042 5.64497C5.04998 5.19788 5.08265 4.34339 5.3025 3.51359C5.31133 3.48096 6.18368 0.409546 9.93884 0.409546C13.694 0.409546 14.5659 3.48096 14.5747 3.51182C14.795 4.34295 14.8277 5.19788 14.8273 5.64497C15.0052 5.74814 15.2082 5.92142 15.342 6.20758C15.6223 6.80634 15.4674 7.63438 14.8824 8.66876C14.814 8.79045 14.7089 8.85527 14.55 8.95359C14.5266 8.96858 14.5028 8.98313 14.4803 8.99724C14.0723 10.1926 12.3713 13.1136 9.93884 13.1136" fill="#007AFF"/>
<path fill-rule="evenodd" clip-rule="evenodd" d="M13.1235 13.2525C13.0551 13.2525 12.9858 13.2366 12.9205 13.2031C12.0252 12.7388 11.7585 12.286 11.7144 12.2C11.6031 11.9835 11.6883 11.7176 11.9051 11.6065C12.1201 11.4967 12.3797 11.5783 12.4936 11.7855C12.5072 11.8072 12.6993 12.0951 13.3275 12.42C13.5438 12.5325 13.6281 12.7983 13.516 13.0144C13.4374 13.1661 13.2829 13.2525 13.1235 13.2525" fill="#007AFF"/>
<path fill-rule="evenodd" clip-rule="evenodd" d="M10.169 20.723C5.09032 20.723 0.438535 19.8791 0.388649 19.8698C0.171445 19.8302 0.0169301 19.6357 0.0270839 19.4153C0.237224 15.0185 2.97965 13.6529 5.02454 13.0088C6.61781 12.5066 7.45175 11.6935 7.4597 11.6851C7.6332 11.5141 7.91265 11.515 8.08394 11.6878C8.25567 11.8611 8.25479 12.1402 8.08129 12.3117C8.04156 12.3509 7.08533 13.2839 5.28987 13.8496C3.29795 14.4775 1.23936 15.5939 0.935191 19.0687C2.2574 19.2852 6.76526 19.9514 11.3464 19.8249C11.5941 19.8187 11.7936 20.0101 11.8002 20.2534C11.8069 20.4968 11.6148 20.6996 11.3716 20.7063C10.969 20.7177 10.5677 20.723 10.169 20.723" fill="#007AFF"/>
<path fill-rule="evenodd" clip-rule="evenodd" d="M14.0078 14.9747V19.8248H19.3059L19.3055 14.9747H14.0078ZM19.3055 20.7066H14.0078C13.5209 20.7066 13.1249 20.3111 13.1249 19.8248V14.9747C13.1249 14.4884 13.5209 14.0929 14.0078 14.0929H19.3055C19.7924 14.0929 20.1884 14.4884 20.1884 14.9747V19.8248C20.1884 20.3111 19.7924 20.7066 19.3055 20.7066V20.7066Z" fill="#007AFF"/>
<path fill-rule="evenodd" clip-rule="evenodd" d="M19.3054 17.1793H14.0078C13.7636 17.1793 13.5663 16.9818 13.5663 16.7384C13.5663 16.495 13.7636 16.2975 14.0078 16.2975H19.3054C19.5495 16.2975 19.7469 16.495 19.7469 16.7384C19.7469 16.9818 19.5495 17.1793 19.3054 17.1793" fill="#007AFF"/>
<path fill-rule="evenodd" clip-rule="evenodd" d="M15.3322 15.8565C15.0881 15.8565 14.8907 15.659 14.8907 15.4156V13.652C14.8907 13.4086 15.0881 13.2111 15.3322 13.2111C15.5764 13.2111 15.7737 13.4086 15.7737 13.652V15.4156C15.7737 15.659 15.5764 15.8565 15.3322 15.8565" fill="#007AFF"/>
<path fill-rule="evenodd" clip-rule="evenodd" d="M17.981 15.8565C17.7369 15.8565 17.5396 15.659 17.5396 15.4156V13.652C17.5396 13.4086 17.7369 13.2111 17.981 13.2111C18.2252 13.2111 18.4225 13.4086 18.4225 13.652V15.4156C18.4225 15.659 18.2252 15.8565 17.981 15.8565" fill="#007AFF"/>
</svg>
