<svg width="28" height="32" viewBox="0 0 28 32" fill="none" xmlns="http://www.w3.org/2000/svg">
<path fill-rule="evenodd" clip-rule="evenodd" d="M26.4843 23.2395L24.886 21.6411C24.7415 21.4981 24.7608 20.8364 24.7608 20.6329V13.7552C24.7608 9.09909 21.5751 5.01378 17.1844 3.55023V3.4223C17.1844 1.57085 15.6177 0 13.7566 0C11.901 0 10.3274 1.57085 10.3274 3.4223V3.55023C5.93676 5.01378 2.75242 9.09909 2.75242 13.7552V20.6329C2.75242 20.8364 2.77031 21.4981 2.62725 21.6411L1.02889 23.2395C0.533703 23.7347 0 24.6535 0 25.5036C0 26.5765 0.972495 27.45 2.16783 27.45H8.18712C8.75246 29.842 10.912 31.6288 13.4815 31.6288C16.051 31.6288 18.692 29.9025 19.2587 27.5105L25.3454 27.45C26.5407 27.45 27.5119 26.5765 27.5119 25.5036C27.5119 24.6563 26.9795 23.736 26.4843 23.2395V23.2395ZM13.4815 29.2106C12.2642 29.2106 11.2133 28.4871 10.7373 27.45H16.2243C15.7484 28.4871 14.6975 29.2106 13.4815 29.2106V29.2106ZM17.8832 24.7594C17.6934 24.7127 18.073 24.7127 17.8832 24.7594H9.63004C9.44022 24.7127 9.81987 24.7127 9.63004 24.7594H2.75242C2.81295 24.5228 2.72629 24.7842 2.75242 24.7594L4.3439 23.3481C4.93951 22.7539 5.50347 21.4747 5.50347 20.6329V13.7552C5.50347 9.83775 7.96428 6.5585 11.8226 5.63552C12.3673 5.50485 12.7511 5.01929 12.7511 4.45945V3.4223C12.7511 2.91886 13.2518 2.75105 13.7566 2.75105C14.2752 2.75105 14.7594 2.90923 14.7594 3.4223V4.45945C14.7594 5.01929 15.1445 5.50485 15.6892 5.63552C19.5476 6.5585 22.0098 9.83775 22.0098 13.7552V20.6329C22.0098 21.4747 22.5737 22.7539 23.1693 23.3495L24.7663 24.9451C24.7924 24.9713 24.736 24.7278 24.7608 24.7594H17.8832V24.7594Z" fill="white"/>
</svg>
