<svg width="10" height="10" viewBox="0 0 10 10" fill="none" xmlns="http://www.w3.org/2000/svg">
<g opacity="0.74" clip-path="url(#clip0)">
<path fill-rule="evenodd" clip-rule="evenodd" d="M0.694777 4.60073L8.07673 7.74367L8.91362 0.732441L0.694777 4.60073ZM8.25104 8.23165C8.22199 8.23165 8.19315 8.22572 8.16617 8.21447L0.12288 4.78992C0.049629 4.75872 0.0016942 4.6898 3.41194e-05 4.61337C-0.00141845 4.53694 0.0436112 4.46644 0.115617 4.43248L9.07091 0.217998C9.13877 0.186006 9.21991 0.191733 9.28216 0.233402C9.34441 0.274873 9.37761 0.345375 9.36911 0.417258L8.4571 8.05648C8.44963 8.11888 8.41124 8.17457 8.35376 8.20558C8.32201 8.22296 8.28653 8.23165 8.25104 8.23165V8.23165Z" fill="#4DA1FF"/>
<path d="M0.694777 4.60073L0.6309 4.46501L0.32797 4.60759L0.636017 4.73874L0.694777 4.60073ZM8.07673 7.74367L8.01797 7.88168L8.20197 7.96002L8.22568 7.76145L8.07673 7.74367ZM8.91362 0.732441L9.06256 0.750219L9.09464 0.481456L8.84974 0.596722L8.91362 0.732441ZM8.16617 8.21447L8.10741 8.35248L8.10841 8.3529L8.16617 8.21447ZM0.12288 4.78992L0.0640962 4.92792L0.0641195 4.92793L0.12288 4.78992ZM3.41194e-05 4.61337L-0.149939 4.61622L-0.149931 4.61663L3.41194e-05 4.61337ZM0.115617 4.43248L0.0517448 4.29675L0.0516213 4.29681L0.115617 4.43248ZM9.07091 0.217998L9.13479 0.35372L9.13488 0.353675L9.07091 0.217998ZM9.28216 0.233402L9.19872 0.358056L9.199 0.358238L9.28216 0.233402ZM9.36911 0.417258L9.51805 0.43504L9.51807 0.434889L9.36911 0.417258ZM8.4571 8.05648L8.60604 8.07431L8.60604 8.07426L8.4571 8.05648ZM8.35376 8.20558L8.28255 8.07356L8.28174 8.074L8.35376 8.20558ZM0.636017 4.73874L8.01797 7.88168L8.13549 7.60565L0.753537 4.46272L0.636017 4.73874ZM8.22568 7.76145L9.06256 0.750219L8.76468 0.714662L7.92779 7.72589L8.22568 7.76145ZM8.84974 0.596722L0.6309 4.46501L0.758655 4.73645L8.9775 0.86816L8.84974 0.596722ZM8.25104 8.08165C8.24239 8.08165 8.23314 8.07988 8.22393 8.07603L8.10841 8.3529C8.15315 8.37157 8.20159 8.38165 8.25104 8.38165V8.08165ZM8.22493 8.07645L0.18164 4.65191L0.0641195 4.92793L8.10741 8.35248L8.22493 8.07645ZM0.181664 4.65192C0.159778 4.64259 0.150313 4.62456 0.149999 4.61011L-0.149931 4.61663C-0.146924 4.75503 -0.0605204 4.87484 0.0640962 4.92792L0.181664 4.65192ZM0.150007 4.61052C0.149736 4.59624 0.158213 4.57823 0.179613 4.56814L0.0516213 4.29681C-0.0709909 4.35465 -0.152572 4.47765 -0.149939 4.61622L0.150007 4.61052ZM0.179489 4.5682L9.13479 0.35372L9.00704 0.0822769L0.0517448 4.29675L0.179489 4.5682ZM9.13488 0.353675C9.1556 0.343908 9.18073 0.346015 9.19872 0.358055L9.3656 0.108749C9.25908 0.0374519 9.12194 0.0281047 9.00695 0.082322L9.13488 0.353675ZM9.199 0.358238C9.21594 0.369526 9.22178 0.38583 9.22015 0.399628L9.51807 0.434889C9.53345 0.30492 9.47288 0.180221 9.36532 0.108566L9.199 0.358238ZM9.22016 0.399477L8.30816 8.0387L8.60604 8.07426L9.51805 0.43504L9.22016 0.399477ZM8.30816 8.03865C8.3067 8.0509 8.29864 8.06488 8.28255 8.07356L8.42497 8.3376C8.52384 8.28427 8.59256 8.18687 8.60604 8.07431L8.30816 8.03865ZM8.28174 8.074C8.27279 8.0789 8.26219 8.08165 8.25104 8.08165V8.38165C8.31086 8.38165 8.37123 8.36702 8.42578 8.33716L8.28174 8.074Z" fill="#4DA1FF"/>
<path fill-rule="evenodd" clip-rule="evenodd" d="M3.90161 9.46511C3.88272 9.46511 3.86363 9.46255 3.84475 9.45761C3.7549 9.43312 3.69347 9.35472 3.6941 9.26605L3.72004 6.10633C3.72045 6.05913 3.73871 6.01371 3.77129 5.97816L9.00344 0.265779C9.07898 0.183627 9.21012 0.175135 9.29645 0.246624C9.38277 0.318507 9.3917 0.443119 9.31637 0.525272L4.13464 6.18256L4.11493 8.55571L5.25831 6.77224C5.31828 6.67903 5.44589 6.6496 5.54363 6.70648C5.64137 6.76316 5.67229 6.885 5.61253 6.97782L4.07882 9.37052C4.04043 9.43036 3.97257 9.46511 3.90161 9.46511" fill="#4DA1FF"/>
<path d="M3.90161 9.46511C3.88272 9.46511 3.86363 9.46255 3.84475 9.45761C3.7549 9.43312 3.69347 9.35472 3.6941 9.26605L3.72004 6.10633C3.72045 6.05913 3.73871 6.01371 3.77129 5.97816L9.00344 0.265779C9.07898 0.183627 9.21012 0.175135 9.29645 0.246624C9.38277 0.318507 9.3917 0.443119 9.31637 0.525272L4.13464 6.18256L4.11493 8.55571L5.25831 6.77224C5.31828 6.67903 5.44589 6.6496 5.54363 6.70648C5.64137 6.76316 5.67229 6.885 5.61253 6.97782L4.07882 9.37052C4.04043 9.43036 3.97257 9.46511 3.90161 9.46511" stroke="#4DA1FF" stroke-width="0.3"/>
</g>
<defs>
<clipPath id="clip0">
<rect width="10" height="10" fill="white"/>
</clipPath>
</defs>
</svg>
