<svg width="21" height="22" viewBox="0 0 21 22" fill="none" xmlns="http://www.w3.org/2000/svg">
<mask id="path-1-inside-1" fill="white">
<path fill-rule="evenodd" clip-rule="evenodd" d="M19.9898 19.2851L15.7933 14.9062C16.9739 13.3394 17.6842 11.368 17.6842 9.22562C17.6842 4.13867 13.7178 0 8.84268 0C3.96646 0 0 4.13867 0 9.22562C0 14.3114 3.96646 18.4501 8.84268 18.4501C10.7528 18.4501 12.5191 17.8066 13.967 16.728L18.2031 21.1488C18.4501 21.406 18.773 21.534 19.097 21.534C19.4199 21.534 19.7428 21.406 19.9898 21.1488C20.4826 20.6344 20.4826 19.8006 19.9898 19.2851V19.2851ZM2.52535 9.22562C2.52535 5.59225 5.35999 2.63638 8.84268 2.63638C12.3254 2.63638 15.1577 5.59225 15.1577 9.22562C15.1577 12.859 12.3254 15.8137 8.84268 15.8137C5.35999 15.8137 2.52535 12.859 2.52535 9.22562V9.22562Z"/>
</mask>
<path fill-rule="evenodd" clip-rule="evenodd" d="M19.9898 19.2851L15.7933 14.9062C16.9739 13.3394 17.6842 11.368 17.6842 9.22562C17.6842 4.13867 13.7178 0 8.84268 0C3.96646 0 0 4.13867 0 9.22562C0 14.3114 3.96646 18.4501 8.84268 18.4501C10.7528 18.4501 12.5191 17.8066 13.967 16.728L18.2031 21.1488C18.4501 21.406 18.773 21.534 19.097 21.534C19.4199 21.534 19.7428 21.406 19.9898 21.1488C20.4826 20.6344 20.4826 19.8006 19.9898 19.2851V19.2851ZM2.52535 9.22562C2.52535 5.59225 5.35999 2.63638 8.84268 2.63638C12.3254 2.63638 15.1577 5.59225 15.1577 9.22562C15.1577 12.859 12.3254 15.8137 8.84268 15.8137C5.35999 15.8137 2.52535 12.859 2.52535 9.22562V9.22562Z" fill="#989898" fill-opacity="0.61"/>
<path d="M15.7933 14.9062L15.3141 14.5452L15.007 14.9529L15.3601 15.3214L15.7933 14.9062ZM13.967 16.728L14.4002 16.3129L14.0336 15.9303L13.6086 16.2468L13.967 16.728ZM18.2031 21.1488L17.7699 21.5639L17.7704 21.5644L18.2031 21.1488ZM19.9898 21.1488L20.4225 21.5644L20.423 21.5639L19.9898 21.1488ZM20.423 18.8699L16.2265 14.4911L15.3601 15.3214L19.5566 19.7002L20.423 18.8699ZM16.2725 15.2673C17.529 13.5997 18.2842 11.5024 18.2842 9.22562H17.0842C17.0842 11.2337 16.4187 13.0791 15.3141 14.5452L16.2725 15.2673ZM18.2842 9.22562C18.2842 3.8316 14.0729 -0.6 8.84268 -0.6V0.6C13.3626 0.6 17.0842 4.44574 17.0842 9.22562H18.2842ZM8.84268 -0.6C3.61135 -0.6 -0.6 3.83154 -0.6 9.22562H0.6C0.6 4.4458 4.32157 0.6 8.84268 0.6V-0.6ZM-0.6 9.22562C-0.6 14.6186 3.6114 19.0501 8.84268 19.0501V17.8501C4.32152 17.8501 0.6 14.0043 0.6 9.22562H-0.6ZM8.84268 19.0501C10.8908 19.0501 12.7812 18.3595 14.3255 17.2092L13.6086 16.2468C12.257 17.2537 10.6149 17.8501 8.84268 17.8501V19.0501ZM13.5338 17.1431L17.7699 21.5639L18.6363 20.7337L14.4002 16.3129L13.5338 17.1431ZM17.7704 21.5644C18.1327 21.9417 18.6129 22.134 19.097 22.134V20.934C18.9331 20.934 18.7675 20.8703 18.6359 20.7332L17.7704 21.5644ZM19.097 22.134C19.5803 22.134 20.0604 21.9415 20.4225 21.5644L19.557 20.7332C19.4252 20.8705 19.2595 20.934 19.097 20.934V22.134ZM20.423 21.5639C21.1385 20.8172 21.1378 19.6176 20.4235 18.8705L19.5561 19.6997C19.8274 19.9835 19.8268 20.4517 19.5566 20.7337L20.423 21.5639ZM3.12535 9.22562C3.12535 5.89958 5.71489 3.23638 8.84268 3.23638V2.03638C5.00509 2.03638 1.92535 5.28491 1.92535 9.22562H3.12535ZM8.84268 3.23638C11.9702 3.23638 14.5577 5.8993 14.5577 9.22562H15.7577C15.7577 5.28519 12.6806 2.03638 8.84268 2.03638V3.23638ZM14.5577 9.22562C14.5577 12.5518 11.9703 15.2137 8.84268 15.2137V16.4137C12.6804 16.4137 15.7577 13.1662 15.7577 9.22562H14.5577ZM8.84268 15.2137C5.71476 15.2137 3.12535 12.5515 3.12535 9.22562H1.92535C1.92535 13.1665 5.00522 16.4137 8.84268 16.4137V15.2137Z" fill="white" mask="url(#path-1-inside-1)"/>
</svg>
