<svg width="24" height="22" viewBox="0 0 24 22" fill="none" xmlns="http://www.w3.org/2000/svg">
<g clip-path="url(#clip0)">
<path fill-rule="evenodd" clip-rule="evenodd" d="M18.2036 19.4762C17.9662 19.4762 17.7534 19.3125 17.7039 19.0744C17.6477 18.8026 17.8253 18.5374 18.1015 18.4822C20.4118 18.0166 21.5787 16.8081 22.3495 15.925C21.8079 15.0646 20.5869 13.6682 18.8672 13.0851C16.8841 12.413 16.4584 12.1568 16.4584 10.9619C16.4584 10.7389 16.6074 10.543 16.8244 10.4802C17.148 10.3863 17.5517 10.3838 18.0193 10.3812C18.7156 10.3772 19.5818 10.3722 19.8651 10.001C20.105 9.68557 20.0045 9.46004 19.5037 8.7051C19.3812 8.52026 19.2521 8.32436 19.128 8.11441C18.1628 6.47694 18.0903 5.75213 18.006 4.9128L17.9897 4.74805C17.7794 2.73839 16.6896 1.64842 14.7509 1.50828C13.0562 1.63034 12.0062 2.48473 11.63 4.04736C11.5652 4.31759 11.2895 4.48385 11.0154 4.42006C10.7413 4.35627 10.5713 4.08553 10.6367 3.8158C11.1165 1.82221 12.5657 0.645343 14.7167 0.503195C14.7392 0.50219 14.7621 0.50219 14.7851 0.503195C17.2445 0.666439 18.7431 2.13664 19.005 4.64508L19.0224 4.81436C19.1005 5.59642 19.1571 6.1615 20.0111 7.61011C20.1254 7.80449 20.2454 7.98481 20.3587 8.1561C20.836 8.87588 21.3771 9.6916 20.6813 10.6033C20.0943 11.3738 18.9473 11.3803 18.0254 11.3858C17.8636 11.3868 17.6998 11.3873 17.5517 11.3934C17.687 11.6038 18.0775 11.7555 19.1995 12.1357C21.4302 12.8912 22.9043 14.7637 23.424 15.7512C23.5189 15.9326 23.4934 16.1531 23.3592 16.3078L23.2816 16.3977C22.4735 17.3329 21.1208 18.8996 18.3067 19.4657C18.272 19.4727 18.2373 19.4762 18.2036 19.4762" fill="#007AFF"/>
<path fill-rule="evenodd" clip-rule="evenodd" d="M9.26293 21.7999C4.14617 21.7999 0.55361 21.0515 0.403027 21.0193C0.159031 20.9681 -0.0109489 20.7501 0.000281048 20.5045C0.197315 16.4375 2.77101 15.1752 4.69031 14.579C6.12162 14.1345 6.89393 13.4046 6.90159 13.3971C7.1027 13.2032 7.42531 13.2062 7.62285 13.4041C7.81938 13.6015 7.81836 13.918 7.61826 14.1124C7.581 14.149 6.67903 15.0145 4.9976 15.5368C3.2049 16.0939 1.354 17.0789 1.05232 20.1192C2.15592 20.3156 5.26457 20.7953 9.26293 20.7953C13.2613 20.7953 16.37 20.3156 17.4735 20.1192C17.1714 17.0789 15.321 16.0939 13.5283 15.5373C11.8463 15.0145 10.9449 14.149 10.9071 14.1124C10.707 13.9175 10.7055 13.599 10.9035 13.4016C11.1011 13.2052 11.4237 13.2037 11.6243 13.3971C11.6452 13.4172 12.416 14.138 13.8356 14.5795C15.7543 15.1752 18.3286 16.437 18.5256 20.5045C18.5368 20.7501 18.3668 20.9681 18.1228 21.0193C17.9723 21.0515 14.3792 21.7999 9.26293 21.7999" fill="#007AFF"/>
<path fill-rule="evenodd" clip-rule="evenodd" d="M5.44329 10.1897C5.45656 10.1978 5.47085 10.2063 5.48515 10.2149C5.67861 10.3334 5.84655 10.4359 5.90933 10.6508C6.1079 11.3309 7.45345 13.867 9.263 13.867C11.0725 13.867 12.4176 11.3309 12.6167 10.6503C12.6795 10.4359 12.8469 10.3334 13.0408 10.2149C13.0551 10.2063 13.0689 10.1978 13.0822 10.1897C13.5661 9.31374 13.4681 8.95611 13.4247 8.8652C13.3757 8.76173 13.2751 8.72857 13.2741 8.72857C13.022 8.68287 12.8433 8.45985 12.8571 8.2077C12.8576 8.19715 12.9086 7.18604 12.6595 6.26082C12.6356 6.17744 12.0113 4.107 9.263 4.107C6.48767 4.107 5.87105 6.24123 5.86543 6.26283C5.61684 7.18604 5.66789 8.19715 5.6684 8.2077C5.68218 8.45985 5.50352 8.68287 5.25136 8.72857C5.24677 8.73058 5.14519 8.76173 5.09618 8.87524C5.05637 8.96767 4.96857 9.32931 5.44329 10.1897M9.263 14.8716C6.80875 14.8716 5.32384 12 4.98337 11.0908C4.97112 11.0833 4.95836 11.0763 4.94662 11.0682C4.79297 10.9743 4.6817 10.907 4.60462 10.7734C4.04669 9.80147 3.90224 9.01589 4.17584 8.44026C4.29784 8.18359 4.47649 8.01884 4.6429 7.91386C4.64545 7.48842 4.68221 6.73549 4.87924 6.00365C5.15437 4.99856 6.42387 3.10242 9.263 3.10242C12.1021 3.10242 13.3716 4.99856 13.6457 6.00164C13.8438 6.73498 13.8805 7.48792 13.8831 7.91386C14.049 8.01884 14.2276 8.18359 14.3496 8.44026C14.6232 9.01589 14.4793 9.80147 13.9209 10.7729C13.8443 10.907 13.733 10.9743 13.5789 11.0682C13.5671 11.0763 13.5549 11.0833 13.5426 11.0908C13.2011 12.0005 11.7167 14.8716 9.263 14.8716" fill="#007AFF"/>
</g>
<defs>
<clipPath id="clip0">
<rect width="24" height="22" fill="white"/>
</clipPath>
</defs>
</svg>
