<svg width="21" height="21" viewBox="0 0 21 21" fill="none" xmlns="http://www.w3.org/2000/svg">
<g clip-path="url(#clip0)">
<path fill-rule="evenodd" clip-rule="evenodd" d="M6.05257 16.9465C6.13839 16.9465 6.22467 16.9707 6.3 17.0196C7.0907 17.53 7.95215 17.8883 8.86063 18.0837C9.04096 18.1225 9.18065 18.2668 9.21352 18.4485L9.44315 19.7122C9.48287 19.929 9.67187 20.087 9.89237 20.087H11.1076C11.3286 20.087 11.5171 19.929 11.5568 19.7117L11.7865 18.4485C11.8193 18.2668 11.959 18.1225 12.1394 18.0837C13.0478 17.8883 13.9093 17.53 14.7 17.0196C14.8552 16.9182 15.0561 16.9223 15.2077 17.0278L16.2668 17.761C16.4444 17.8838 16.6973 17.86 16.8493 17.7085L17.7089 16.8493C17.8651 16.6932 17.887 16.448 17.761 16.2668L17.0278 15.2072C16.9228 15.0552 16.9196 14.8552 17.0196 14.7C17.5304 13.9093 17.8883 13.0474 18.0837 12.1398C18.1225 11.9586 18.2663 11.8198 18.4485 11.786L19.7122 11.5564C19.9295 11.5171 20.087 11.3281 20.087 11.1076V9.89237C20.087 9.67141 19.9295 9.48241 19.7122 9.4427L18.4485 9.21398C18.2663 9.1802 18.1225 9.04141 18.0837 8.86017C17.8883 7.95261 17.5304 7.0907 17.0196 6.3C16.9196 6.14478 16.9228 5.94437 17.0278 5.79235L17.761 4.73322C17.887 4.55198 17.8651 4.30683 17.7089 4.1507L16.8493 3.29152C16.6968 3.13996 16.4439 3.11576 16.2668 3.23902L15.2077 3.9722C15.0561 4.07765 14.8557 4.0813 14.7 3.98041C13.9088 3.46957 13.0478 3.11165 12.1394 2.91626C11.959 2.87746 11.8193 2.7332 11.7865 2.5515L11.5568 1.28785C11.5171 1.071 11.3286 0.913043 11.1076 0.913043H9.89237C9.67187 0.913043 9.48287 1.071 9.44315 1.2883L9.21352 2.5515C9.18065 2.7332 9.04096 2.87746 8.86063 2.91626C7.95261 3.11165 7.09115 3.46957 6.3 3.98041C6.14478 4.0813 5.94437 4.07765 5.7928 3.9722L4.73322 3.23902C4.55609 3.11622 4.30272 3.13996 4.1507 3.29152L3.29152 4.1507C3.13539 4.30683 3.11348 4.55198 3.23902 4.73322L3.9722 5.79235C4.07765 5.94437 4.08085 6.14478 3.98041 6.3C3.47002 7.0907 3.11211 7.95261 2.91626 8.86017C2.87746 9.04141 2.73365 9.1802 2.55196 9.21398L1.28785 9.44315C1.07054 9.48241 0.913043 9.67141 0.913043 9.89237V11.1076C0.913043 11.3281 1.07054 11.5171 1.28785 11.5568L2.55196 11.786C2.73365 11.8198 2.87746 11.9586 2.91626 12.1398C3.11211 13.0474 3.47002 13.9093 3.98041 14.7C4.08085 14.8552 4.07765 15.0552 3.9722 15.2072L3.23902 16.2668C3.11348 16.448 3.13539 16.6932 3.29152 16.8493L4.1507 17.7085C4.30272 17.86 4.55563 17.8833 4.73367 17.761L5.7928 17.0278C5.87087 16.9739 5.96172 16.9465 6.05257 16.9465M11.1076 21H9.89237C9.23041 21 8.66387 20.527 8.54472 19.8756L8.36896 18.9064C7.56046 18.7019 6.78848 18.3809 6.06626 17.9486L5.2532 18.512C4.72135 18.879 3.96124 18.8101 3.50517 18.354L2.646 17.4948C2.17761 17.0269 2.11141 16.2914 2.48804 15.7468L3.05093 14.9342C2.61907 14.2115 2.29813 13.4391 2.09407 12.631L1.12487 12.4553C0.472957 12.3366 0 11.77 0 11.1076V9.89237C0 9.22996 0.472957 8.66296 1.12487 8.54517L2.09407 8.36896C2.29813 7.56046 2.61907 6.78848 3.05093 6.0658L2.48804 5.2532C2.11141 4.70811 2.17761 3.97311 2.646 3.50517L3.50517 2.646C3.96124 2.18993 4.7218 2.12054 5.2532 2.48804L6.06626 3.05139C6.78848 2.61907 7.56091 2.29813 8.36896 2.09361L8.54472 1.12487C8.66387 0.472957 9.23041 0 9.89237 0H11.1076C11.7696 0 12.3366 0.472956 12.4553 1.12441L12.6315 2.09361C13.4395 2.29813 14.2115 2.61907 14.9342 3.05139L15.7468 2.48804C16.2787 2.12054 17.0392 2.18993 17.4948 2.646L18.3545 3.50517C18.8228 3.97311 18.889 4.70811 18.512 5.2532L17.9491 6.0658C18.3809 6.78848 18.7019 7.56046 18.9064 8.36896L19.8756 8.54472C20.527 8.66296 21 9.22996 21 9.89237V11.1076C21 11.77 20.527 12.3366 19.8756 12.4548L18.9064 12.631C18.7019 13.4391 18.3809 14.2115 17.9491 14.9342L18.512 15.7468C18.889 16.2914 18.8228 17.0269 18.3545 17.4948L17.4948 18.354C17.2364 18.6124 16.8922 18.7553 16.5261 18.7553C16.2467 18.7553 15.9773 18.6708 15.7473 18.512L14.9342 17.9486C14.212 18.3809 13.4395 18.7019 12.6315 18.9064L12.4553 19.8751C12.3366 20.527 11.7696 21 11.1076 21" fill="#007AFF"/>
<path fill-rule="evenodd" clip-rule="evenodd" d="M10.5001 7.3044C8.73788 7.3044 7.3044 8.73834 7.3044 10.5001C7.3044 12.2618 8.73788 13.6957 10.5001 13.6957C12.2622 13.6957 13.6957 12.2618 13.6957 10.5001C13.6957 8.73834 12.2622 7.3044 10.5001 7.3044M10.5001 14.6087C8.23479 14.6087 6.39136 12.7658 6.39136 10.5001C6.39136 8.23434 8.23479 6.39136 10.5001 6.39136C12.7653 6.39136 14.6087 8.23434 14.6087 10.5001C14.6087 12.7658 12.7653 14.6087 10.5001 14.6087" fill="#007AFF"/>
</g>
<defs>
<clipPath id="clip0">
<rect width="21" height="21" fill="white"/>
</clipPath>
</defs>
</svg>
