<svg width="26" height="22" viewBox="0 0 26 22" fill="none" xmlns="http://www.w3.org/2000/svg">
<path fill-rule="evenodd" clip-rule="evenodd" d="M19.6142 18.2536C19.0502 18.434 18.4477 18.1174 18.2695 17.5501C18.0913 16.9827 18.4057 16.379 18.9708 16.1997C21.7339 15.3271 23.1353 13.0871 23.1353 9.54099C23.1353 5.46723 19.8343 2.15376 15.7753 2.15376C12.2474 2.15376 9.20965 4.67745 8.55035 8.15433L8.33135 9.31064L7.2034 8.98837C6.84142 8.88511 6.47603 8.83291 6.11631 8.83291C3.92624 8.83291 2.14468 10.6213 2.14468 12.8182C2.14468 15.0162 3.92624 16.8045 6.11631 16.8045L6.33532 16.7887C6.93447 16.766 7.43262 17.2131 7.46326 17.8065C7.49504 18.4011 7.04113 18.9072 6.44879 18.939L6.37731 18.9447C6.29106 18.9515 6.20482 18.9572 6.11631 18.9572C2.74383 18.9572 0 16.2031 0 12.8182C0 9.43319 2.74383 6.67915 6.11631 6.67915C6.31149 6.67915 6.50667 6.68936 6.70184 6.70865C7.91943 2.76426 11.5801 0 15.7753 0C21.0167 0 25.28 4.28028 25.28 9.54099C25.28 14.0709 23.3214 17.0837 19.6142 18.2536V18.2536ZM11.9535 10.476C11.9569 10.4726 11.958 10.467 11.9614 10.4635C12.1725 10.2525 12.4471 10.1481 12.7228 10.1481C12.9974 10.1481 13.2732 10.2525 13.4831 10.4635C13.4854 10.4658 13.4854 10.4704 13.4888 10.4738L16.4494 13.4445C16.8681 13.8655 16.8681 14.5475 16.4494 14.9674C16.2394 15.1773 15.9648 15.2828 15.6902 15.2828C15.4156 15.2828 15.1421 15.1773 14.9322 14.9674L13.7974 13.8281V20.606C13.7974 21.2006 13.3174 21.6828 12.724 21.6828C12.1316 21.6828 11.6516 21.2006 11.6516 20.606V13.8235L10.5123 14.9674C10.3035 15.1773 10.0289 15.2828 9.75433 15.2828C9.47972 15.2828 9.20511 15.1773 8.99631 14.9674C8.57645 14.5475 8.57645 13.8655 8.99631 13.4445L11.9535 10.476V10.476Z" fill="white"/>
</svg>
